<svg width="185" height="178" viewBox="0 0 185 178" fill="none" xmlns="http://www.w3.org/2000/svg">
<path fill-rule="evenodd" clip-rule="evenodd" d="M149.538 12.7337L184.577 10.0886C185.04 10.0709 185.17 10.7484 184.728 10.9075L148.066 23.6853C148.066 23.6853 148.05 23.6853 148.044 23.6912C148.033 23.6912 148.027 23.697 148.016 23.697C147.444 23.8267 137.06 26.3421 137.619 41.4646C138.152 55.7977 135.746 92.3578 101.568 117.165C91.7658 124.282 85.3989 135.492 84.0577 147.851C83.3106 154.738 84.2783 166.845 85.4951 177.148C85.5913 177.962 84.5444 178.333 84.1482 177.625C79.1282 168.735 64.4134 137.054 66.151 97.1886C66.2472 94.9558 64.4983 93.1001 62.3534 93.1473C51.4531 93.3829 21.4916 91.8394 2.07951 72.6815C2.04555 72.6462 1.98895 72.599 1.92105 72.5342C1.07777 71.7684 -1.9727 68.9937 1.97197 68.4812L57.3334 61.0642C62.1496 60.4339 68.8166 59.3794 72.2349 55.7858C74.3119 53.6002 74.6231 52.5871 75.7324 48.7814C80.1187 33.7059 90.2548 1.8116 121.948 0.014812C121.948 0.014812 133.76 -0.851178 144.518 10.66C145.832 12.068 147.659 12.8221 149.544 12.7219L149.538 12.7337ZM35.1085 56.8462C32.1032 57.2409 29.1093 55.78 27.3492 53.0524L10.5461 27.0903C9.8953 26.0829 10.8348 24.8164 11.8705 25.2935L65.6019 50.1716C66.8301 50.7431 66.6094 52.693 65.3019 52.8638L35.1085 56.8462Z" fill="url(#paint0_linear_2516_4119)"/>
<defs>
<linearGradient id="paint0_linear_2516_4119" x1="27.8755" y1="117.041" x2="187.783" y2="4.0354" gradientUnits="userSpaceOnUse">
<stop offset="0.03" stop-color="#007CD8"/>
<stop offset="0.52" stop-color="#00B15C"/>
<stop offset="0.94" stop-color="#FFD600"/>
</linearGradient>
</defs>
</svg>
