<svg width="142" height="32" viewBox="0 0 142 32" fill="none" xmlns="http://www.w3.org/2000/svg">
<g clip-path="url(#clip0_547_2988)">
<path fill-rule="evenodd" clip-rule="evenodd" d="M69.3742 7.46056C69.6542 8.90202 68.7025 10.2956 67.2486 10.5732C65.7947 10.8508 64.3891 9.9073 64.1091 8.4658C63.8291 7.0243 64.7808 5.63072 66.2347 5.35313C67.6886 5.07555 69.0942 6.01907 69.3742 7.46056ZM77.1738 6.74512V22.253L77.1748 22.254C77.1748 23.218 77.8141 23.6497 78.4801 23.6497C78.8889 23.6497 79.2218 23.5481 79.478 23.3957V26.4664C79.0168 26.7711 78.1983 26.9489 77.4043 26.9489C74.7927 26.9489 73.5131 25.1469 73.5131 22.8116V6.74512H77.1738ZM34.7807 7.27843L25.7188 26.5426H29.8661L31.2994 23.1164H38.7231L40.1565 26.5426H44.3294L35.2417 7.27843H34.7807ZM32.5278 20.0955L35.0113 14.1562L37.4691 20.0955H32.5278ZM68.5718 12.6335H64.9112V26.5426H68.5718V12.6335ZM88.0277 22.964L84.4183 12.6335H80.6296L86.3639 27.3541C85.7748 28.3953 84.8026 28.8513 83.7267 28.8513C82.8815 28.8513 82.0885 28.6482 81.6531 28.2927V31.3634C82.1398 31.7442 83.1633 31.9983 84.1621 31.9983C86.159 31.9983 88.3351 30.8566 89.4869 27.9626L95.7079 12.6325H91.893L88.0277 22.9629V22.964ZM99.489 8.67408H103.124V12.6335H106.605V15.7296H103.124V21.6435C103.124 22.8868 103.816 23.6232 105.069 23.6232C105.555 23.6232 106.273 23.5216 106.605 23.3185V26.5669C106.169 26.7955 105.326 26.9478 104.557 26.9478C101.409 26.9478 99.489 24.9935 99.489 21.6942V15.7296H97.2616V12.6335H99.489V8.67408ZM113.522 12.6335H109.862V26.5426H113.522V12.6335ZM127.887 16.0355C127.374 15.8069 126.376 15.4513 125.071 15.4513C122.203 15.4513 120.411 17.2025 120.411 19.5886C120.411 21.9747 122.203 23.7766 125.071 23.7766C126.377 23.7766 127.374 23.4212 127.887 23.1671L127.938 26.3141C127.197 26.6949 125.967 26.9489 124.815 26.9489C120.053 26.9489 116.854 23.6497 116.854 19.5886C116.854 15.5275 120.079 12.2537 124.841 12.2537C125.967 12.2537 127.196 12.5077 127.938 12.8886L127.887 16.0355ZM137.947 18.4458L136.36 17.7856C135.388 17.4046 135.055 17.1253 135.055 16.5423C135.055 15.8058 135.926 15.2482 137.385 15.2482C138.664 15.2482 139.689 15.6038 140.431 16.01V12.914C139.817 12.5839 138.512 12.2537 137.232 12.2537C133.597 12.2537 131.37 14.1573 131.37 16.4925C131.37 18.2945 132.521 19.3865 134.57 20.1981L136.233 20.8837C137.359 21.3408 137.82 21.7726 137.82 22.4826C137.82 23.1926 137.103 23.9544 135.234 23.9544C133.673 23.9544 132.163 23.4212 131.369 22.8127V25.8833C132.137 26.4675 133.621 26.9489 135.413 26.9489C139.382 26.9489 141.327 24.7152 141.327 22.5069C141.327 20.5272 140.277 19.3855 137.948 18.4458H137.947ZM112.158 10.5828C113.616 10.3282 114.59 8.94976 114.333 7.50404C114.077 6.05833 112.686 5.09278 111.228 5.34744C109.77 5.6021 108.796 6.98053 109.053 8.42625C109.31 9.87192 110.7 10.8375 112.158 10.5828ZM49.5524 13.1732C50.7733 12.3765 52.2333 11.9109 53.8043 11.9109L53.8054 11.9119C58.0818 11.9119 61.5482 15.3487 61.5482 19.5886C61.5482 23.8285 58.0818 27.2653 53.8054 27.2653C51.2824 27.2653 49.0422 26.0686 47.6281 24.2169C47.626 24.2137 47.6239 24.2115 47.6217 24.2083C47.5608 24.1269 47.5011 24.0443 47.4424 23.9608L47.4104 23.9163C46.6164 22.7661 46.1308 21.3906 46.0699 19.9071C46.055 19.6934 46.0454 19.4775 46.0454 19.2585V6.74512H49.5524V13.1732ZM49.8469 19.5886C49.8469 21.7557 51.6186 23.5121 53.8043 23.5121C55.9899 23.5121 57.7616 21.7557 57.7616 19.5886C57.7616 17.4215 55.9899 15.6651 53.8043 15.6651C51.6186 15.6651 49.8469 17.4215 49.8469 19.5886Z" fill="#101828"/>
<path fill-rule="evenodd" clip-rule="evenodd" d="M28.216 2.28907L34.8273 1.81357C34.9148 1.8104 34.9394 1.93219 34.8561 1.96078L27.9384 4.25778L27.9341 4.25883C27.932 4.25883 27.9309 4.2599 27.9288 4.2599C27.8208 4.2832 25.8613 4.73539 25.967 7.45388C26.0674 10.0304 25.6136 16.6027 19.1646 21.0622C17.3151 22.3415 16.1137 24.3568 15.8607 26.5786C15.7197 27.8166 15.9023 29.9929 16.1318 31.8451C16.15 31.9912 15.9525 32.0579 15.8777 31.9308C14.9305 30.3328 12.154 24.6374 12.4818 17.4711C12.5 17.0697 12.17 16.7362 11.7653 16.7446C9.70858 16.7869 4.05521 16.5095 0.392378 13.0656C0.38597 13.0592 0.375292 13.0508 0.362477 13.0391C0.203363 12.9015 -0.372225 12.4026 0.372088 12.3105L10.8181 10.9772C11.7269 10.8639 12.9848 10.6743 13.6299 10.0284C14.0218 9.63543 14.0805 9.45331 14.2897 8.76917C15.1174 6.05916 17.0299 0.325662 23.0101 0.0026627C23.0101 0.0026627 25.2388 -0.153012 27.2688 1.9163C27.5165 2.1694 27.8615 2.30496 28.2171 2.28696L28.216 2.28907ZM6.62453 10.219C6.05748 10.2899 5.49257 10.0273 5.16046 9.53695L1.98993 4.86989C1.86712 4.6888 2.04439 4.46111 2.23981 4.54689L12.3783 9.01911C12.61 9.12186 12.5683 9.47233 12.3217 9.50308L6.62453 10.219Z" fill="url(#paint0_linear_547_2988)"/>
</g>
<defs>
<linearGradient id="paint0_linear_547_2988" x1="5.25978" y1="21.04" x2="34.4435" y2="-0.607705" gradientUnits="userSpaceOnUse">
<stop offset="0.03" stop-color="#007CD8"/>
<stop offset="0.52" stop-color="#00B15C"/>
<stop offset="0.94" stop-color="#FFD600"/>
</linearGradient>
<clipPath id="clip0_547_2988">
<rect width="141.325" height="32" fill="white"/>
</clipPath>
</defs>
</svg>
