<svg width="48" height="48" viewBox="0 0 48 48" fill="none" xmlns="http://www.w3.org/2000/svg">
<path d="M19.208 9.76998C20.5208 9.58758 21.6008 10.6796 21.6008 12.002V26.402H36.0008C37.3256 26.402 38.42 27.482 38.2328 28.7948C37.6253 32.9979 35.4488 36.815 32.141 39.4785C28.8332 42.1419 24.6396 43.454 20.4037 43.1508C16.1677 42.8476 12.2037 40.9517 9.30896 37.8443C6.41421 34.737 4.80349 30.6488 4.80078 26.402C4.79999 22.3603 6.25625 18.4539 8.90248 15.399C11.5487 12.3441 15.2075 10.3456 19.208 9.76998Z" fill="url(#paint0_linear_2516_4135)"/>
<path d="M40.9488 24.0016C42.144 24.0016 43.1736 23.1232 43.1976 21.928L43.2 21.6016C43.2001 19.3678 42.7548 17.1565 41.89 15.0969C41.0252 13.0374 39.7584 11.1709 38.1637 9.60681C36.569 8.0427 34.6783 6.81232 32.6024 5.98764C30.5265 5.16296 28.3069 4.76055 26.0736 4.80395C24.8784 4.82795 24 5.85995 24 7.05275V21.6016C24 22.2381 24.2529 22.8485 24.7029 23.2986C25.153 23.7487 25.7635 24.0016 26.4 24.0016H40.9488Z" fill="url(#paint1_linear_2516_4135)"/>
<defs>
<linearGradient id="paint0_linear_2516_4135" x1="38.252" y1="43.202" x2="-15.2704" y2="-10.3204" gradientUnits="userSpaceOnUse">
<stop stop-color="#007CD8"/>
<stop offset="0.641" stop-color="#00B15C"/>
</linearGradient>
<linearGradient id="paint1_linear_2516_4135" x1="41.5992" y1="20.4808" x2="27.84" y2="4.80155" gradientUnits="userSpaceOnUse">
<stop stop-color="#007CD8"/>
<stop offset="1" stop-color="#00B15C"/>
</linearGradient>
</defs>
</svg>
