<svg width="32" height="32" viewBox="0 0 32 32" fill="none" xmlns="http://www.w3.org/2000/svg">
<g clip-path="url(#clip0_564_3954)">
<path fill-rule="evenodd" clip-rule="evenodd" d="M6.98792 31.1166C7.23396 31.0549 7.41855 30.932 7.66438 30.8091C16.645 25.7037 16.645 25.7037 16.645 25.7037C27.9629 19.1841 27.9629 19.1841 27.9629 19.1841C30.3004 17.831 30.3004 14.5093 27.9629 13.2178C16.645 6.69783 16.645 6.69783 16.645 6.69783C7.66438 1.53116 7.66438 1.53116 7.66438 1.53116C4.95813 -0.006546 1.69792 2.51512 2.62063 5.52929C5.51146 15.186 5.51146 15.186 5.51146 15.186C5.57313 15.3089 5.57313 15.4322 5.57313 15.4935C8.89459 27.0568 8.89459 27.0568 8.89459 27.0568C9.38709 28.7793 8.46417 30.4399 6.98792 31.1166Z" fill="#007CD8"/>
<path fill-rule="evenodd" clip-rule="evenodd" d="M9.20945 27.0733C5.89237 15.5039 5.89237 15.5039 5.89237 15.5039C6.01529 16.0579 6.01529 16.6731 5.83112 17.1656C2.94425 26.8887 2.94425 26.8887 2.94425 26.8887C2.08425 29.5968 4.78716 31.9968 7.30529 31.1354C8.77945 30.4583 9.7007 28.7966 9.20945 27.0733Z" fill="#FFD600"/>
</g>
<defs>
<clipPath id="clip0_564_3954">
<rect width="32" height="32" fill="white"/>
</clipPath>
</defs>
</svg>
