<svg width="180" height="42" viewBox="0 0 180 42" fill="none" xmlns="http://www.w3.org/2000/svg">
<path fill-rule="evenodd" clip-rule="evenodd" d="M88.0536 9.61478C88.409 11.4728 87.2011 13.2691 85.3556 13.6269C83.5102 13.9847 81.7261 12.7685 81.3707 10.9105C81.0153 9.05246 82.2233 7.25617 84.0687 6.89836C85.9142 6.54056 87.6983 7.75674 88.0536 9.61478ZM97.9535 8.6926V28.6817L97.9548 28.6831C97.9548 29.9256 98.7663 30.482 99.6115 30.482C100.13 30.482 100.553 30.3511 100.878 30.1547V34.1127C100.293 34.5055 99.2539 34.7346 98.2461 34.7346C94.9313 34.7346 93.3071 32.4119 93.3071 29.4018V8.6926H97.9535ZM44.1448 9.38001L32.6426 34.2109H37.9067L39.726 29.7947H49.1488L50.9681 34.2109H56.2647L44.73 9.38001H44.1448ZM41.2851 25.9008L44.4374 18.2453L47.5571 25.9008H41.2851ZM87.0352 16.2826H82.3888V34.2109H87.0352V16.2826ZM111.73 29.5982L107.149 16.2826H102.34L109.618 35.257C108.871 36.599 107.637 37.1869 106.271 37.1869C105.198 37.1869 104.192 36.925 103.639 36.4667V40.4247C104.257 40.9157 105.556 41.2431 106.824 41.2431C109.358 41.2431 112.12 39.7714 113.582 36.0412L121.478 16.2812H116.637L111.73 29.5968V29.5982ZM126.278 11.179H130.892V16.2826H135.31V20.2734H130.892V27.8961C130.892 29.4987 131.769 30.4479 133.361 30.4479C133.977 30.4479 134.888 30.317 135.31 30.0551V34.2423C134.758 34.5369 133.686 34.7333 132.711 34.7333C128.715 34.7333 126.278 32.2142 126.278 27.9616V20.2734H123.451V16.2826H126.278V11.179ZM144.09 16.2826H139.443V34.2109H144.09V16.2826ZM162.323 20.6675C161.673 20.3729 160.405 19.9147 158.748 19.9147C155.108 19.9147 152.834 22.1719 152.834 25.2475C152.834 28.323 155.108 30.6457 158.748 30.6457C160.406 30.6457 161.673 30.1875 162.323 29.8601L162.388 33.9163C161.447 34.4073 159.886 34.7347 158.424 34.7347C152.38 34.7347 148.319 30.4821 148.319 25.2475C148.319 20.0129 152.412 15.793 158.457 15.793C159.886 15.793 161.445 16.1203 162.388 16.6113L162.323 20.6675ZM175.092 23.7745L173.078 22.9234C171.844 22.4324 171.421 22.0723 171.421 21.3208C171.421 20.3716 172.526 19.6528 174.378 19.6528C176.002 19.6528 177.303 20.1111 178.246 20.6348V16.6441C177.465 16.2185 175.809 15.793 174.184 15.793C169.57 15.793 166.743 18.2466 166.743 21.2567C166.743 23.5794 168.205 24.987 170.805 26.0331L172.916 26.9169C174.346 27.5061 174.931 28.0625 174.931 28.9777C174.931 29.8929 174.02 30.8749 171.648 30.8749C169.667 30.8749 167.75 30.1875 166.742 29.4032V33.3612C167.717 34.1141 169.602 34.7347 171.876 34.7347C176.913 34.7347 179.382 31.8555 179.382 29.0091C179.382 26.4572 178.049 24.9856 175.093 23.7745H175.092ZM142.359 13.6393C144.209 13.3111 145.446 11.5343 145.12 9.67082C144.794 7.80734 143.029 6.56278 141.178 6.89103C139.327 7.21928 138.091 8.99603 138.417 10.8595C138.743 12.723 140.508 13.9675 142.359 13.6393ZM62.8941 16.9782C64.4438 15.9512 66.297 15.3511 68.291 15.3511L68.2924 15.3525C73.7204 15.3525 78.1202 19.7824 78.1202 25.2474C78.1202 30.7125 73.7204 35.1424 68.2924 35.1424C65.09 35.1424 62.2466 33.5999 60.4517 31.2131C60.4505 31.2112 60.4493 31.2096 60.448 31.2081C60.4466 31.2062 60.4451 31.2044 60.4436 31.2022C60.3664 31.0972 60.2905 30.9908 60.216 30.883L60.1754 30.8257C59.1675 29.3432 58.5512 27.5701 58.474 25.658C58.455 25.3825 58.4428 25.1042 58.4428 24.8219V8.6926H62.8941V16.9782ZM63.268 25.2474C63.268 28.0407 65.5167 30.3047 68.291 30.3047C71.0653 30.3047 73.314 28.0407 73.314 25.2474C73.314 22.4542 71.0653 20.1902 68.291 20.1902C65.5167 20.1902 63.268 22.4542 63.268 25.2474Z" fill="white"/>
<path fill-rule="evenodd" clip-rule="evenodd" d="M35.814 2.95054L44.2056 2.33764C44.3167 2.33355 44.3479 2.49053 44.2422 2.52738L35.4616 5.48815C35.4616 5.48815 35.4576 5.48815 35.4562 5.48951C35.4535 5.48951 35.4521 5.49088 35.4494 5.49088C35.3125 5.52091 32.8253 6.10378 32.9595 9.60782C33.0869 12.929 32.5108 21.4004 24.3253 27.1485C21.9777 28.7975 20.4528 31.3952 20.1316 34.259C19.9527 35.8547 20.1845 38.6599 20.4759 41.0473C20.4989 41.2357 20.2482 41.3217 20.1533 41.1579C18.951 39.0981 15.4269 31.7569 15.843 22.5197C15.866 22.0023 15.4472 21.5724 14.9335 21.5833C12.3229 21.6379 5.1472 21.2802 0.498037 16.8411C0.489905 16.833 0.47635 16.822 0.460085 16.807C0.258124 16.6296 -0.472458 15.9866 0.472284 15.8679L13.7312 14.1493C14.8847 14.0032 16.4814 13.7589 17.3001 12.9262C17.7975 12.4198 17.8721 12.185 18.1377 11.3032C19.1882 7.81007 21.6158 0.419768 29.2063 0.00343211C29.2063 0.00343211 32.0351 -0.197228 34.6118 2.47005C34.9262 2.7963 35.364 2.97102 35.8154 2.94781L35.814 2.95054ZM8.40839 13.1719C7.68865 13.2634 6.97162 12.9249 6.55008 12.2928L2.52578 6.27714C2.3699 6.04372 2.5949 5.75023 2.84295 5.8608L15.7115 11.6253C16.0056 11.7578 15.9528 12.2096 15.6397 12.2492L8.40839 13.1719Z" fill="url(#paint0_linear_2516_3593)"/>
<defs>
<linearGradient id="paint0_linear_2516_3593" x1="6.67614" y1="27.1199" x2="44.1214" y2="-0.231732" gradientUnits="userSpaceOnUse">
<stop offset="0.03" stop-color="#007CD8"/>
<stop offset="0.52" stop-color="#00B15C"/>
<stop offset="0.94" stop-color="#FFD600"/>
</linearGradient>
</defs>
</svg>
