<svg width="48" height="48" viewBox="0 0 48 48" fill="none" xmlns="http://www.w3.org/2000/svg">
<path d="M24.5159 14.7057C24.5159 12.2217 25.5027 9.83948 27.2591 8.08304C29.0156 6.3266 31.3978 5.33984 33.8818 5.33984C36.3658 5.33984 38.748 6.3266 40.5045 8.08304C42.2609 9.83948 43.2477 12.2217 43.2477 14.7057C43.2477 17.1897 42.2609 19.5719 40.5045 21.3284C38.748 23.0848 36.3658 24.0716 33.8818 24.0716C31.3978 24.0716 29.0156 23.0848 27.2591 21.3284C25.5027 19.5719 24.5159 17.1897 24.5159 14.7057ZM4.84766 6.27643H21.7062V23.135H4.84766V6.27643ZM4.84766 26.8813H21.7062V43.7398H4.84766V26.8813ZM25.4525 26.8813H42.3111V43.7398H25.4525V26.8813Z" fill="url(#paint0_linear_2516_4148)"/>
<defs>
<linearGradient id="paint0_linear_2516_4148" x1="24.0477" y1="5.33984" x2="24.0477" y2="43.7398" gradientUnits="userSpaceOnUse">
<stop stop-color="#007CD8"/>
<stop offset="1" stop-color="#00B15C"/>
</linearGradient>
</defs>
</svg>
